<svg width="16" height="16" viewBox="0 0 16 16" fill="none" xmlns="http://www.w3.org/2000/svg">
<g clip-path="url(#clip0_1675_1191)">
<path d="M5.63778 8.28125C4.3532 8.28125 3.30811 9.32637 3.30811 10.6109C3.30811 11.8955 4.3532 12.9406 5.63778 12.9406C6.92233 12.9406 7.96746 11.8955 7.96746 10.6109C7.96746 10.1441 7.8298 9.69363 7.56946 9.30821C7.50175 9.20805 7.36568 9.18167 7.26545 9.24935C7.16526 9.3171 7.13888 9.45317 7.2066 9.55336C7.41791 9.86613 7.52958 10.2318 7.52958 10.6109C7.52958 11.654 6.68093 12.5027 5.63781 12.5027C4.59466 12.5027 3.74605 11.654 3.74605 10.6109C3.74605 9.56781 4.59466 8.71916 5.63781 8.71916C5.75873 8.71916 5.85675 8.62113 5.85675 8.50025C5.85672 8.37928 5.75869 8.28125 5.63778 8.28125Z" fill="#8E8E8E" stroke="#8E8E8E" stroke-width="0.2"/>
<path d="M9.68525 12.6885L9.11269 12.1159C9.06123 12.0644 9.0472 11.9849 9.07548 11.9169C9.07607 11.9156 9.07875 11.9093 9.07923 11.9081C9.10877 11.8368 9.17477 11.7907 9.2474 11.7907H10.0572C10.178 11.7907 10.2761 11.6927 10.2761 11.5717V9.40031C10.2761 9.2794 10.178 9.18137 10.0572 9.18137H9.2474C9.17477 9.18137 9.10877 9.13529 9.07697 9.05862C9.0472 8.98709 9.06126 8.90762 9.11269 8.8561L9.68525 8.28354C9.77077 8.19805 9.77077 8.05943 9.68525 7.97391L8.14985 6.43851C8.06433 6.35302 7.92571 6.35302 7.84019 6.43851C7.75467 6.52403 7.75467 6.66265 7.84019 6.74818L9.22083 8.12875L8.80308 8.54647C8.62574 8.72378 8.57455 8.99081 8.67467 9.2315C8.77219 9.46702 8.99698 9.61926 9.2474 9.61926H9.83819V11.3528H9.2474C8.99698 11.3528 8.77219 11.505 8.67626 11.7367C8.67577 11.7379 8.67312 11.7441 8.67267 11.7453C8.57448 11.9812 8.62568 12.2483 8.80308 12.4255L9.22083 12.8433L7.99504 14.0691L7.57729 13.6513C7.39991 13.474 7.13285 13.4228 6.89229 13.5229C6.65673 13.6205 6.5045 13.8453 6.5045 14.0957V14.6865H4.77101V14.0956C4.77101 13.8453 4.61882 13.6204 4.37851 13.5209C4.1426 13.4228 3.8756 13.474 3.69823 13.6513L3.28048 14.0691L2.05472 12.8433L2.47246 12.4255C2.64977 12.2481 2.70097 11.9811 2.60087 11.7405C2.5033 11.505 2.27847 11.3528 2.02815 11.3528H1.43739V9.61926H2.02818C2.27854 9.61926 2.50336 9.46702 2.60288 9.22675C2.70097 8.99084 2.64981 8.72381 2.4725 8.54643L2.05475 8.12872L3.28051 6.90296L3.69826 7.32067C3.87557 7.49805 4.14257 7.54924 4.38326 7.44911C4.61882 7.35154 4.77101 7.12672 4.77101 6.87639V6.2856H6.5045V6.87639C6.5045 7.12678 6.65673 7.3516 6.89229 7.44911C6.97121 7.48182 7.05014 7.51822 7.12677 7.55726C7.2344 7.61211 7.3663 7.56931 7.42125 7.46156C7.47613 7.35383 7.4333 7.222 7.32554 7.16708C7.23873 7.12284 7.14933 7.08163 7.0598 7.04452C6.98847 7.01498 6.94238 6.94898 6.94238 6.87636V6.0666C6.94238 5.94565 6.84435 5.84766 6.72344 5.84766H4.55207C4.43116 5.84766 4.33313 5.94565 4.33313 6.0666V6.87636C4.33313 6.94898 4.28704 7.01498 4.21035 7.04675C4.13889 7.07655 4.05938 7.06253 4.00792 7.01104L3.43536 6.43848C3.34984 6.35299 3.21118 6.35299 3.1257 6.43848L1.59027 7.97387C1.50475 8.05939 1.50475 8.19805 1.59027 8.28357L2.16283 8.85607C2.21432 8.90759 2.22831 8.98706 2.19929 9.05687C2.199 9.05755 2.19664 9.06324 2.19631 9.06392C2.16677 9.13525 2.10077 9.18134 2.02818 9.18134H1.21845C1.09754 9.18134 0.999512 9.27937 0.999512 9.40028V11.5717C0.999512 11.6926 1.09754 11.7907 1.21845 11.7907H2.02821C2.10081 11.7907 2.16681 11.8367 2.19861 11.9134C2.22834 11.9849 2.21432 12.0644 2.16286 12.1159L1.5903 12.6884C1.50478 12.7739 1.50478 12.9126 1.5903 12.9981L3.12573 14.5335C3.21125 14.619 3.34987 14.619 3.43539 14.5335L4.00795 13.9609C4.05941 13.9094 4.13889 13.8955 4.2087 13.9245C4.20938 13.9248 4.21507 13.9272 4.21574 13.9275C4.28708 13.957 4.33317 14.023 4.33317 14.0956V14.9054C4.33317 15.0263 4.43119 15.1243 4.55211 15.1243H6.72351C6.84442 15.1243 6.94245 15.0263 6.94245 14.9054V14.0956C6.94245 14.023 6.98854 13.957 7.05741 13.9284C7.05835 13.928 7.06436 13.9256 7.06527 13.9252C7.13676 13.8954 7.21627 13.9095 7.26769 13.9609L7.84025 14.5335C7.88133 14.5745 7.93702 14.5976 7.9951 14.5976C8.05315 14.5976 8.10884 14.5745 8.14992 14.5335L9.68531 12.9981C9.77077 12.9126 9.77077 12.7739 9.68525 12.6885Z" fill="#8E8E8E" stroke="#8E8E8E" stroke-width="0.2"/>
<path d="M11.9407 9.82581C11.9407 10.6031 12.5731 11.2355 13.3504 11.2355C14.1278 11.2355 14.7602 10.6031 14.7602 9.82581C14.7602 9.04847 14.1278 8.41602 13.3504 8.41602C12.5731 8.41602 11.9407 9.04847 11.9407 9.82581ZM14.3223 9.82581C14.3223 10.3617 13.8863 10.7977 13.3504 10.7977C12.8146 10.7977 12.3786 10.3617 12.3786 9.82581C12.3786 9.28987 12.8146 8.85393 13.3504 8.85393C13.8863 8.85393 14.3223 9.28987 14.3223 9.82581Z" fill="#8E8E8E" stroke="#8E8E8E" stroke-width="0.2"/>
<path d="M14.781 14.0694C14.9018 14.0694 14.9999 13.9714 14.9999 13.8504V13.3021C14.9999 12.3924 14.2599 11.6523 13.3502 11.6523C12.4405 11.6523 11.7004 12.3924 11.7004 13.3021V14.7119H9.03486C8.91398 14.7119 8.81592 14.8099 8.81592 14.9308C8.81592 15.0517 8.91398 15.1497 9.03486 15.1497H11.9087C11.9123 15.1499 11.9157 15.1508 11.9194 15.1508H14.7809C14.9018 15.1508 14.9999 15.0528 14.9999 14.9319C14.9999 14.8109 14.9018 14.7129 14.7809 14.7129H12.1383V13.3021C12.1383 12.6339 12.682 12.0902 13.3502 12.0902C14.0184 12.0902 14.562 12.6339 14.562 13.3021V13.8504C14.562 13.9714 14.66 14.0694 14.781 14.0694Z" fill="#8E8E8E" stroke="#8E8E8E" stroke-width="0.2"/>
<path d="M2.75117 5.71145C2.87208 5.71145 2.97011 5.61343 2.97011 5.49251V1.81093H4.42241C4.54332 1.81093 4.64135 1.71293 4.64135 1.59199C4.64135 1.47108 4.54332 1.37305 4.42241 1.37305H2.75117C2.63026 1.37305 2.53223 1.47108 2.53223 1.59199V5.49251C2.53223 5.61346 2.63026 5.71145 2.75117 5.71145Z" fill="#8E8E8E" stroke="#8E8E8E" stroke-width="0.2"/>
<path d="M11.86 1.81093H13.3446V7.10949C13.3446 7.23043 13.4426 7.32843 13.5635 7.32843C13.6844 7.32843 13.7825 7.2304 13.7825 7.10949V1.59199C13.7825 1.47108 13.6844 1.37305 13.5635 1.37305H11.86C11.7391 1.37305 11.6411 1.47108 11.6411 1.59199C11.6411 1.71293 11.7391 1.81093 11.86 1.81093Z" fill="#8E8E8E" stroke="#8E8E8E" stroke-width="0.2"/>
<path d="M5.71699 2.75365H10.5976C10.7185 2.75365 10.8165 2.65563 10.8165 2.53471V1.06855C10.8165 0.947638 10.7185 0.849609 10.5976 0.849609H5.71699C5.59608 0.849609 5.49805 0.947638 5.49805 1.06855V2.53471C5.49805 2.65563 5.59608 2.75365 5.71699 2.75365ZM5.93593 1.28749H10.3786V2.31574H5.93593V1.28749Z" fill="#8E8E8E" stroke="#8E8E8E" stroke-width="0.2"/>
<path d="M5.63789 9.19531C5.51694 9.19531 5.41895 9.29334 5.41895 9.41425V10.6118C5.41895 10.7327 5.51694 10.8307 5.63789 10.8307H6.43666C6.55757 10.8307 6.6556 10.7327 6.6556 10.6118C6.6556 10.4908 6.55757 10.3928 6.43666 10.3928H5.85686V9.41429C5.85683 9.29334 5.7588 9.19531 5.63789 9.19531Z" fill="#8E8E8E" stroke="#8E8E8E" stroke-width="0.2"/>
<path d="M5.17695 4.47694H10.1201C10.241 4.47694 10.339 4.37895 10.339 4.258C10.339 4.13709 10.241 4.03906 10.1201 4.03906H5.17695C5.056 4.03906 4.95801 4.13709 4.95801 4.258C4.95801 4.37891 5.056 4.47694 5.17695 4.47694Z" fill="#8E8E8E" stroke="#8E8E8E" stroke-width="0.2"/>
<path d="M10.1199 5.80664H9.11591C8.99503 5.80664 8.89697 5.90467 8.89697 6.02558C8.89697 6.14649 8.99503 6.24452 9.11591 6.24452H10.1199C10.2408 6.24452 10.3388 6.14649 10.3388 6.02558C10.3388 5.90467 10.2408 5.80664 10.1199 5.80664Z" fill="#8E8E8E" stroke="#8E8E8E" stroke-width="0.2"/>
<path d="M11.4363 4.72255C11.4791 4.76527 11.5351 4.78664 11.5911 4.78664C11.6472 4.78664 11.7032 4.76524 11.7459 4.72251L12.3662 4.10225C12.4517 4.01676 12.4517 3.87814 12.3662 3.79262C12.2807 3.70716 12.142 3.70713 12.0566 3.79265L11.5911 4.2581L11.4067 4.07371C11.3212 3.98822 11.1825 3.98819 11.0971 4.07374C11.0116 4.15923 11.0116 4.29788 11.0971 4.38337L11.4363 4.72255Z" fill="#8E8E8E" stroke="#8E8E8E" stroke-width="0.2"/>
<path d="M11.4366 6.49012C11.4793 6.53285 11.5354 6.55425 11.5914 6.55425C11.6474 6.55425 11.7035 6.53285 11.7462 6.49009L12.3664 5.86983C12.4519 5.78434 12.4519 5.64571 12.3664 5.56019C12.2809 5.47474 12.1422 5.47471 12.0568 5.56023L11.5914 6.02568L11.4069 5.84129C11.3214 5.7558 11.1827 5.75577 11.0973 5.84129C11.0118 5.92678 11.0118 6.06543 11.0973 6.15092L11.4366 6.49012Z" fill="#8E8E8E" stroke="#8E8E8E" stroke-width="0.2"/>
</g>
<defs>
<clipPath id="clip0_1675_1191">
<rect width="16" height="16" fill="white"/>
</clipPath>
</defs>
</svg>
