<svg width="16" height="16" viewBox="0 0 16 16" fill="none" xmlns="http://www.w3.org/2000/svg">
<g clip-path="url(#clip0_1675_1207)">
<path d="M8.0016 3C6.91188 2.99864 5.85159 3.33677 4.98238 3.96286C4.11317 4.58895 3.48274 5.46864 3.18721 6.46781C2.89167 7.46698 2.94724 8.5308 3.34545 9.49708C3.74367 10.4634 4.46267 11.2791 5.39283 11.8199V13.7814C5.39283 13.8393 5.41701 13.895 5.46006 13.936C5.5031 13.977 5.56148 14 5.62235 14H10.3808C10.4417 14 10.5001 13.977 10.5431 13.936C10.5862 13.895 10.6104 13.8393 10.6104 13.7814V11.818C11.5396 11.2769 12.2577 10.4612 12.6553 9.4953C13.0529 8.5294 13.1082 7.46617 12.8127 6.46756C12.5173 5.46896 11.8873 4.5897 11.0188 3.96371C10.1502 3.33771 9.09072 2.9993 8.0016 3ZM9.99143 7.92875C9.97218 7.90664 9.94853 7.88836 9.92185 7.87497C9.89516 7.86158 9.86597 7.85334 9.83593 7.85073C9.8059 7.84811 9.77562 7.85117 9.74683 7.85972C9.71803 7.86828 9.6913 7.88216 9.66815 7.90059C9.14868 8.325 8.66794 8.79064 8.23112 9.29249V9.09682C8.23112 8.15221 8.78236 7.5615 9.24451 7.2328C9.40879 7.10991 9.61101 7.04205 9.81987 7.03972C10.0589 7.04329 10.2886 7.12881 10.4668 7.2806C10.7368 7.50814 10.9508 7.94283 10.6644 8.42088C10.1657 9.25321 9.40051 9.71792 8.38556 9.81168C9.07334 8.94748 9.95214 8.24411 9.96225 8.23633C10.0086 8.19928 10.0377 8.14625 10.0432 8.08883C10.0486 8.03141 10.03 7.97426 9.99143 7.92986V7.92875ZM7.77402 9.29249C7.33738 8.7906 6.85677 8.32495 6.33737 7.90059C6.29038 7.86574 6.23101 7.84965 6.1718 7.85573C6.11259 7.8618 6.05818 7.88956 6.02005 7.93314C5.98193 7.97672 5.96308 8.03271 5.96748 8.08928C5.97189 8.14586 5.9992 8.19859 6.04366 8.23633C6.05339 8.24411 6.9314 8.94637 7.61958 9.81168C6.60501 9.7194 5.83942 9.25321 5.3407 8.42088C5.05438 7.94283 5.26834 7.50814 5.53832 7.2806C5.71654 7.12881 5.94622 7.04329 6.18526 7.03972C6.39412 7.04205 6.59635 7.10991 6.76062 7.2328C7.22278 7.5615 7.77207 8.15221 7.77207 9.09682L7.77402 9.29249ZM10.268 11.5034C10.2332 11.5226 10.2042 11.5502 10.1841 11.5835C10.1639 11.6167 10.1533 11.6544 10.1533 11.6928V13.5597H8.23112V10.2616C9.48493 10.2015 10.461 9.64343 11.0624 8.63841C11.4584 7.97841 11.2009 7.31729 10.771 6.95412C10.3412 6.59095 9.61214 6.42715 8.96987 6.88371C8.5256 7.20018 8.2 7.58337 8.0016 8.01843C7.80319 7.58337 7.47759 7.20018 7.03333 6.88371C6.38872 6.42715 5.66592 6.58984 5.23216 6.95412C4.79841 7.3184 4.54477 7.97841 4.94079 8.63841C5.54221 9.64343 6.51826 10.2015 7.77207 10.2616V13.5597H5.85187V11.6939C5.85169 11.6553 5.84079 11.6176 5.82029 11.5844C5.79979 11.5512 5.77042 11.5237 5.73517 11.5049C4.86852 11.0297 4.19079 10.2954 3.80717 9.41572C3.42356 8.53608 3.35554 7.5604 3.61367 6.64016C3.8718 5.71992 4.44164 4.9066 5.23471 4.32648C6.02779 3.74636 6.99973 3.43189 7.99965 3.43189C8.99957 3.43189 9.97151 3.74636 10.7646 4.32648C11.5577 4.9066 12.1275 5.71992 12.3856 6.64016C12.6438 7.5604 12.5757 8.53608 12.1921 9.41572C11.8085 10.2954 11.1308 11.0297 10.2641 11.5049L10.268 11.5034Z" fill="#8E8E8E" stroke="#8E8E8E" stroke-width="0.2"/>
<path d="M12.2624 4C12.3328 3.99988 12.4003 3.97198 12.4502 3.92238L13.9284 2.4457C13.9755 2.39547 14.0012 2.3289 14 2.26008C13.9987 2.19127 13.9707 2.12564 13.9219 2.07709C13.873 2.02854 13.8072 2.0009 13.7382 2.00002C13.6693 1.99914 13.6027 2.0251 13.5527 2.07238L12.0745 3.54906C12.0385 3.58626 12.0142 3.63318 12.0046 3.68402C11.995 3.73487 12.0005 3.7874 12.0205 3.83514C12.0405 3.88287 12.0741 3.92371 12.117 3.95261C12.16 3.98152 12.2105 3.99721 12.2624 3.99776V4Z" fill="#8E8E8E"/>
<path d="M12.4517 12.0386C12.4271 12.0263 12.3979 12.0166 12.3657 12.01C12.3336 12.0034 12.2991 12 12.2643 12C12.2296 12 12.1951 12.0035 12.163 12.0102C12.1309 12.0169 12.1018 12.0266 12.0772 12.039C12.0527 12.0513 12.0332 12.0659 12.02 12.082C12.0067 12.0981 11.9999 12.1153 12 12.1327C12.0001 12.1501 12.007 12.1673 12.0203 12.1834C12.0337 12.1994 12.0533 12.214 12.0779 12.2263L13.554 12.9641C13.6042 12.9877 13.6707 13.0005 13.7396 13C13.8084 12.9994 13.8741 12.9855 13.9227 12.9611C13.9713 12.9367 13.999 12.9038 14 12.8694C14.0009 12.835 13.9751 12.8017 13.9278 12.7767L12.4517 12.0386Z" fill="#8E8E8E"/>
<path d="M3.55191 3.92743C3.60208 3.97484 3.66875 4.00086 3.73779 3.99998C3.80683 3.9991 3.87282 3.97138 3.92176 3.92271C3.9707 3.87403 3.99875 3.80822 3.99996 3.73923C4.00117 3.67024 3.97545 3.60349 3.92825 3.55313L2.44809 2.07257C2.39792 2.02516 2.33125 1.99914 2.26221 2.00002C2.19317 2.0009 2.12718 2.02862 2.07824 2.07729C2.0293 2.12597 2.00125 2.19178 2.00004 2.26077C1.99883 2.32976 2.02455 2.39651 2.07175 2.44687L3.55191 3.92743Z" fill="#8E8E8E"/>
<path d="M3.54426 12.0413L2.07194 12.7773C2.02486 12.8023 1.99907 12.8355 2.00003 12.8698C2.00099 12.9041 2.02863 12.9369 2.07709 12.9612C2.12555 12.9855 2.19102 12.9994 2.25963 13C2.32823 13.0005 2.39458 12.9877 2.44461 12.9642L3.91648 12.2285C3.94227 12.2164 3.96295 12.2018 3.97729 12.1857C3.99163 12.1695 3.99934 12.1521 3.99996 12.1344C4.00058 12.1167 3.9941 12.0991 3.9809 12.0827C3.96771 12.0663 3.94806 12.0514 3.92314 12.0389C3.89821 12.0264 3.86851 12.0165 3.83579 12.0098C3.80308 12.0031 3.76801 11.9998 3.73268 12C3.69734 12.0002 3.66246 12.004 3.6301 12.0111C3.59773 12.0182 3.56854 12.0285 3.54426 12.0413Z" fill="#8E8E8E"/>
</g>
<defs>
<clipPath id="clip0_1675_1207">
<rect width="16" height="16" fill="white"/>
</clipPath>
</defs>
</svg>
