<svg width="20" height="24" viewBox="0 0 20 24" fill="none" xmlns="http://www.w3.org/2000/svg">
<path id="Vector" d="M11.5183 23.1235V23.7485C11.5348 23.7485 11.5513 23.7478 11.5677 23.7465L11.5183 23.1235ZM2.75305 23.1235L2.70321 23.7465C2.71979 23.7478 2.73642 23.7485 2.75305 23.7485V23.1235ZM2.75305 1V0.375C2.73655 0.375 2.72005 0.375654 2.7036 0.376959L2.75305 1ZM11.5183 1L11.5681 0.37699C11.5516 0.375664 11.5349 0.375 11.5183 0.375V1ZM13.2713 8.23743C12.9262 8.23743 12.6463 8.51725 12.6463 8.86243C12.6463 9.20761 12.9262 9.48743 13.2713 9.48743V8.23743ZM17.5838 8.86243L17.6337 8.23942C17.6171 8.23809 17.6005 8.23743 17.5838 8.23743V8.86243ZM17.5838 23.0972V23.7222C17.6003 23.7222 17.6168 23.7215 17.6333 23.7202L17.5838 23.0972ZM11.527 22.4722C11.1819 22.4722 10.902 22.752 10.902 23.0972C10.902 23.4424 11.1819 23.7222 11.527 23.7222V22.4722ZM12.6463 20.827C12.6463 21.3666 12.5093 21.7783 12.3077 22.049C12.1151 22.3076 11.8416 22.4708 11.4688 22.5004L11.5677 23.7465C12.2994 23.6884 12.9024 23.3433 13.3103 22.7955C13.7091 22.2598 13.8963 21.567 13.8963 20.827H12.6463ZM11.5183 22.4985H2.75305V23.7485H11.5183V22.4985ZM2.80289 22.5005C2.43521 22.471 2.16075 22.3083 1.96631 22.0481C1.7634 21.7766 1.625 21.3648 1.625 20.827H0.375C0.375 21.5688 0.565299 22.2615 0.965002 22.7964C1.37317 23.3426 1.97523 23.6882 2.70321 23.7465L2.80289 22.5005ZM1.625 20.827V3.29649H0.375V20.827H1.625ZM1.625 3.29649C1.625 2.75683 1.76209 2.34521 1.96367 2.07447C2.15621 1.81588 2.42972 1.65263 2.8025 1.62304L2.7036 0.376959C1.97195 0.435026 1.36894 0.780158 0.961062 1.32796C0.562227 1.86362 0.375 2.55643 0.375 3.29649H1.625ZM2.75305 1.625H11.5183V0.375H2.75305V1.625ZM11.4685 1.62301C11.8361 1.65242 12.1106 1.81515 12.305 2.07535C12.5079 2.34687 12.6463 2.75863 12.6463 3.29649H13.8963C13.8963 2.55462 13.706 1.86196 13.3063 1.32709C12.8982 0.780887 12.2961 0.435229 11.5681 0.37699L11.4685 1.62301ZM12.6463 3.29649V20.827H13.8963V3.29649H12.6463ZM13.2713 9.48743H17.5838V8.23743H13.2713V9.48743ZM17.534 9.48544C17.9017 9.51485 18.1761 9.67758 18.3706 9.93778C18.5735 10.2093 18.7119 10.6211 18.7119 11.1589H19.9619C19.9619 10.417 19.7716 9.72439 19.3719 9.18952C18.9637 8.64332 18.3616 8.29766 17.6337 8.23942L17.534 9.48544ZM18.7119 11.1589V20.8007H19.9619V11.1589H18.7119ZM18.7119 20.8007C18.7119 21.3403 18.5748 21.752 18.3732 22.0227C18.1807 22.2813 17.9072 22.4446 17.5344 22.4741L17.6333 23.7202C18.3649 23.6622 18.9679 23.317 19.3758 22.7692C19.7746 22.2336 19.9619 21.5408 19.9619 20.8007H18.7119ZM17.5838 22.4722H11.527V23.7222H17.5838V22.4722ZM4.15281 4.19055V7.60899H5.40281V4.19055H4.15281ZM4.15281 9.96685V13.3853H5.40281V9.96685H4.15281ZM4.15281 15.7519V19.1616H5.40281V15.7519H4.15281ZM8.88604 4.19055V7.60899H10.136V4.19055H8.88604ZM8.88604 9.96685V13.3853H10.136V9.96685H8.88604ZM8.88604 15.7519V19.1616H10.136V15.7519H8.88604Z" fill="#EEF1F4" fill-opacity="0.6"/>
</svg>
