<svg width="25" height="23" viewBox="0 0 25 23" fill="none" xmlns="http://www.w3.org/2000/svg">
<path id="Vector" d="M14.0234 1V0.5C14.0102 0.5 13.997 0.500523 13.9839 0.501567L14.0234 1ZM22.3372 1L22.3771 0.501592C22.3638 0.500531 22.3505 0.5 22.3372 0.5V1ZM22.3372 21.984V22.484C22.3504 22.484 22.3636 22.4835 22.3768 22.4825L22.3372 21.984ZM12.3607 21.984H11.8607C11.8607 22.2602 12.0845 22.484 12.3607 22.484V21.984ZM12.3607 21.9425V22.4425C12.6368 22.4425 12.8607 22.2186 12.8607 21.9425H12.3607ZM2.02662 21.9425L1.98827 22.441C2.00103 22.442 2.01382 22.4425 2.02662 22.4425V21.9425ZM1.00402 14.4185H1.50402C1.50402 14.4053 1.5035 14.3921 1.50246 14.379L1.00402 14.4185ZM2.02662 13.055L2.12828 13.5446C2.13463 13.5433 2.14095 13.5418 2.14724 13.5402L2.02662 13.055ZM12.3607 10.486H12.8607C12.8607 10.3322 12.7898 10.1869 12.6686 10.0921C12.5474 9.99739 12.3894 9.9637 12.2401 10.0008L12.3607 10.486ZM12.8607 10.8186C12.8607 10.5425 12.6368 10.3186 12.3607 10.3186C12.0845 10.3186 11.8607 10.5425 11.8607 10.8186L12.8607 10.8186ZM10.3155 17.2701H10.8155C10.8155 17.2573 10.815 17.2445 10.814 17.2318L10.3155 17.2701ZM3.09079 17.2701L2.59226 17.2318C2.59128 17.2445 2.59079 17.2573 2.59079 17.2701H3.09079ZM3.09079 21.984H2.59079C2.59079 22.2602 2.81465 22.484 3.09079 22.484V21.984ZM10.3155 21.984V22.484C10.5916 22.484 10.8155 22.2602 10.8155 21.984H10.3155ZM12.8607 3.17822C12.8607 2.65147 12.9944 2.24017 13.2003 1.96371C13.3989 1.69696 13.6828 1.52861 14.063 1.49843L13.9839 0.501567C13.3166 0.554529 12.7691 0.868383 12.3982 1.3665C12.0345 1.8549 11.8607 2.49115 11.8607 3.17822H12.8607ZM14.0234 1.5H22.3372V0.5H14.0234V1.5ZM22.2974 1.49841C22.6729 1.52845 22.9575 1.69637 23.1578 1.96441C23.3649 2.2415 23.5 2.65291 23.5 3.17822H24.5C24.5 2.4897 24.3234 1.85357 23.9589 1.3658C23.5876 0.868966 23.0408 0.554691 22.3771 0.501592L22.2974 1.49841ZM23.5 3.17822V19.8058H24.5V3.17822H23.5ZM23.5 19.8058C23.5 20.3326 23.3663 20.7439 23.1604 21.0203C22.9618 21.2871 22.6779 21.4554 22.2977 21.4856L22.3768 22.4825C23.0441 22.4295 23.5916 22.1157 23.9625 21.6175C24.3261 21.1291 24.5 20.4929 24.5 19.8058H23.5ZM22.3372 21.484H12.3607V22.484H22.3372V21.484ZM12.8607 21.984V3.17822H11.8607V21.984H12.8607ZM15.4273 4.02622V7.26861H16.4273V4.02622H15.4273ZM15.4273 9.50502V12.7474H16.4273V9.50502H15.4273ZM15.4273 14.9921V18.2262H16.4273V14.9921H15.4273ZM19.9168 4.02622V7.26861H20.9168V4.02622H19.9168ZM19.9168 9.50502V12.7474H20.9168V9.50502H19.9168ZM19.9168 14.9921V18.2262H20.9168V14.9921H19.9168ZM11.8607 13.6287V21.9425H12.8607V13.6287H11.8607ZM12.3607 21.4425H2.02662V22.4425H12.3607V21.4425ZM2.06497 21.4439C1.88631 21.4302 1.76337 21.3547 1.67467 21.2343C1.57826 21.1035 1.50402 20.8911 1.50402 20.5956H0.504025C0.504025 21.0484 0.616844 21.4845 0.869614 21.8275C1.1301 22.181 1.51845 22.4049 1.98827 22.441L2.06497 21.4439ZM1.50402 20.5956V14.4185H0.504025V20.5956H1.50402ZM1.50246 14.379C1.4873 14.1876 1.54251 13.9972 1.65773 13.8435L0.857729 13.2435C0.596409 13.592 0.471199 14.0238 0.505586 14.458L1.50246 14.379ZM1.65773 13.8435C1.77295 13.6899 1.94026 13.5836 2.12828 13.5446L1.92495 12.5655C1.49852 12.654 1.11905 12.8951 0.857729 13.2435L1.65773 13.8435ZM2.14724 13.5402L12.4813 10.9713L12.2401 10.0008L1.90599 12.5698L2.14724 13.5402ZM11.8607 10.486V13.6287H12.8607V10.486H11.8607ZM12.8607 13.6287L12.8607 10.8186L11.8607 10.8186L11.8607 13.6287L12.8607 13.6287ZM10.814 17.2318C10.7781 16.7644 10.5582 16.3755 10.2045 16.1137C9.86152 15.8599 9.42455 15.7475 8.96865 15.7475V16.7475C9.2693 16.7475 9.48081 16.8222 9.60962 16.9175C9.72773 17.0049 9.80302 17.1273 9.81696 17.3085L10.814 17.2318ZM8.96865 15.7475H4.43763V16.7475H8.96865V15.7475ZM4.43763 15.7475C3.98172 15.7475 3.54475 15.8599 3.20176 16.1137C2.84806 16.3755 2.62821 16.7644 2.59226 17.2318L3.58931 17.3085C3.60325 17.1273 3.67854 17.0049 3.79665 16.9175C3.92547 16.8222 4.13697 16.7475 4.43763 16.7475V15.7475ZM2.59079 17.2701V21.984H3.59079V17.2701H2.59079ZM3.09079 22.484H10.3155V21.484H3.09079V22.484ZM10.8155 21.984V17.2701H9.81548V21.984H10.8155ZM3.09079 20.6217H10.3155V19.6217H3.09079V20.6217ZM3.09079 18.6098H10.3155V17.6098H3.09079V18.6098Z" fill="#EEF1F4" fill-opacity="0.6"/>
</svg>
