<svg xmlns="http://www.w3.org/2000/svg" width="25" height="25" viewBox="0 0 25 25" fill="none">
  <path d="M22.9223 10.6367L22.966 10.1386C22.9513 10.1373 22.9367 10.1366 22.922 10.1367L22.9223 10.6367ZM24.04 12.1106H24.5401L24.54 12.1069L24.04 12.1106ZM22.9223 19.763V20.263C22.9354 20.263 22.9485 20.2624 22.9616 20.2614L22.9223 19.763ZM2.1578 19.763L2.11844 20.2614C2.13154 20.2624 2.14466 20.263 2.1578 20.263V19.763ZM1.04004 18.289H0.540025L0.540053 18.2927L1.04004 18.289ZM13.4459 10.6428H12.9459C12.9459 10.7755 12.9986 10.9027 13.0925 10.9965C13.1863 11.0902 13.3136 11.1429 13.4462 11.1428L13.4459 10.6428ZM13.9459 10.6367C13.9459 10.3605 13.7221 10.1367 13.4459 10.1367C13.1698 10.1367 12.9459 10.3605 12.9459 10.6367H13.9459ZM12.9459 19.763C12.9459 20.0391 13.1698 20.263 13.4459 20.263C13.7221 20.263 13.9459 20.0391 13.9459 19.763H12.9459ZM11.2165 14.6102H11.7165C11.7165 14.5956 11.7159 14.5811 11.7146 14.5665L11.2165 14.6102ZM9.74258 13.4925L9.74631 12.9925H9.74258V13.4925ZM3.31854 14.6102L2.82046 14.5665C2.81918 14.5811 2.81854 14.5956 2.81854 14.6102H3.31854ZM3.31854 19.763H2.81854C2.81854 20.0391 3.0424 20.263 3.31854 20.263V19.763ZM11.2165 19.763V20.263C11.4927 20.263 11.7165 20.0391 11.7165 19.763H11.2165ZM20.2876 17.0423H20.7876C20.7876 17.0291 20.7871 17.016 20.786 17.0029L20.2876 17.0423ZM18.8197 15.9245L18.8235 15.4245H18.8197V15.9245ZM17.3089 17.0423L16.8105 17.0029C16.8094 17.016 16.8089 17.0291 16.8089 17.0423H17.3089ZM17.3089 19.7384H16.8089C16.8089 20.0145 17.0328 20.2384 17.3089 20.2384V19.7384ZM20.2876 19.7384V20.2384C20.5637 20.2384 20.7876 20.0145 20.7876 19.7384H20.2876ZM22.8786 11.1347C23.0861 11.1529 23.2337 11.2427 23.3397 11.3858C23.453 11.5386 23.5376 11.7809 23.5401 12.1144L24.54 12.1069C24.5364 11.6174 24.4121 11.1534 24.1431 10.7904C23.8668 10.4175 23.4586 10.1818 22.966 10.1386L22.8786 11.1347ZM23.54 12.1106V18.289H24.54V12.1106H23.54ZM23.54 18.289C23.54 18.6202 23.4557 18.8628 23.3421 19.016C23.2356 19.1596 23.0878 19.2483 22.8829 19.2645L22.9616 20.2614C23.4569 20.2223 23.868 19.9856 24.1453 19.6118C24.4155 19.2475 24.54 18.7808 24.54 18.289H23.54ZM22.9223 19.263H2.1578V20.263H22.9223V19.263ZM2.19715 19.2645C1.99302 19.2484 1.84683 19.1602 1.74081 19.0167C1.62723 18.863 1.54252 18.619 1.54003 18.2853L0.540053 18.2927C0.543704 18.782 0.667797 19.2473 0.936533 19.611C1.21282 19.9849 1.62244 20.2222 2.11844 20.2614L2.19715 19.2645ZM1.54004 18.289V11.4965H0.540039V18.289H1.54004ZM1.54004 11.4965C1.54004 11.0985 1.58628 10.9653 1.64564 10.8841C1.71392 10.7906 1.87004 10.67 2.33829 10.4888L1.9773 9.55622C1.49362 9.74345 1.09086 9.94836 0.838246 10.294C0.576705 10.6519 0.540039 11.0715 0.540039 11.4965H1.54004ZM2.33829 10.4888C3.2742 10.1265 11.6489 6.9367 12.5267 6.55697L12.1296 5.63917C11.2755 6.00871 2.94526 9.18152 1.9773 9.55622L2.33829 10.4888ZM12.5267 6.55697C12.6862 6.48795 12.7497 6.50066 12.7534 6.50154C12.754 6.50168 12.7528 6.50094 12.754 6.50193C12.7568 6.50411 12.7689 6.51444 12.7864 6.54278C12.8768 6.68917 12.9459 7.02233 12.9459 7.57203H13.9459C13.9459 7.01626 13.8891 6.42513 13.6372 6.01724C13.4977 5.79156 13.2842 5.59921 12.9828 5.5282C12.6958 5.46056 12.4031 5.52088 12.1296 5.63917L12.5267 6.55697ZM12.9459 7.57203V10.6428H13.9459V7.57203H12.9459ZM13.4462 11.1428L22.9226 11.1367L22.922 10.1367L13.4456 10.1428L13.4462 11.1428ZM12.9459 10.6367V19.763H13.9459V10.6367H12.9459ZM11.7146 14.5665C11.6714 14.0739 11.4357 13.6657 11.0628 13.3894C10.6998 13.1204 10.2358 12.9961 9.74631 12.9925L9.73884 13.9924C10.0723 13.9949 10.3146 14.0795 10.4674 14.1928C10.6105 14.2988 10.7003 14.4464 10.7185 14.6539L11.7146 14.5665ZM9.74258 12.9925H4.79251V13.9925H9.74258V12.9925ZM4.79251 12.9925C4.30045 12.9925 3.83506 13.1171 3.47148 13.3876C3.09877 13.665 2.86361 14.0746 2.82046 14.5665L3.81663 14.6539C3.83489 14.4457 3.92523 14.2965 4.06842 14.1899C4.22072 14.0766 4.46161 13.9925 4.79251 13.9925V12.9925ZM2.81854 14.6102V19.763H3.81854V14.6102H2.81854ZM3.31854 20.263H11.2165V19.263H3.31854V20.263ZM11.7165 19.763V14.6102H10.7165V19.763H11.7165ZM20.786 17.0029C20.7469 16.507 20.5097 16.0976 20.1369 15.8214C19.7742 15.5526 19.3104 15.4282 18.8235 15.4245L18.816 16.4245C19.1459 16.427 19.3884 16.5113 19.5415 16.6249C19.6847 16.7309 19.773 16.8774 19.7891 17.0816L20.786 17.0029ZM18.8197 15.4245H18.7768V16.4245H18.8197V15.4245ZM18.7768 15.4245C18.2849 15.4245 17.8191 15.5491 17.4559 15.8201C17.0832 16.0982 16.8494 16.5094 16.8105 17.0029L17.8074 17.0816C17.8237 16.875 17.9123 16.7273 18.054 16.6215C18.2052 16.5087 18.4457 16.4245 18.7768 16.4245V15.4245ZM16.8089 17.0423V19.7384H17.8089V17.0423H16.8089ZM17.3089 20.2384H20.2876V19.2384H17.3089V20.2384ZM20.7876 19.7384V17.0423H19.7876V19.7384H20.7876ZM16.8263 14.2786V12.6572H15.8263V14.2786H16.8263ZM19.2952 14.2786V12.6572H18.2952V14.2786H19.2952ZM3.31854 18.2301H11.2104V17.2301H3.31854V18.2301ZM3.31854 16.0253H11.2104V15.0253H3.31854V16.0253ZM21.7702 14.2786V12.6572H20.7702V14.2786H21.7702Z" fill="#EEF1F4" fill-opacity="0.6"/>
</svg>