<svg width="16" height="16" viewBox="0 0 16 16" fill="none" xmlns="http://www.w3.org/2000/svg">
<path d="M3.33333 8.33333C3.33333 8.54227 3.64067 8.9056 4.35365 9.26207C5.27603 9.72327 6.58451 10 8 10C9.41547 10 10.7239 9.72327 11.6463 9.26207C12.3593 8.9056 12.6667 8.54227 12.6667 8.33333V6.8858C11.5667 7.56547 9.88487 8 8 8C6.11515 8 4.43331 7.56547 3.33333 6.8858V8.33333ZM12.6667 10.2191C11.5667 10.8988 9.88487 11.3333 8 11.3333C6.11515 11.3333 4.43331 10.8988 3.33333 10.2191V11.6667C3.33333 11.8756 3.64067 12.2389 4.35365 12.5954C5.27603 13.0566 6.58451 13.3333 8 13.3333C9.41547 13.3333 10.7239 13.0566 11.6463 12.5954C12.3593 12.2389 12.6667 11.8756 12.6667 11.6667V10.2191ZM2 11.6667V5C2 3.34315 4.68629 2 8 2C11.3137 2 14 3.34315 14 5V11.6667C14 13.3235 11.3137 14.6667 8 14.6667C4.68629 14.6667 2 13.3235 2 11.6667ZM8 6.66667C9.41547 6.66667 10.7239 6.38995 11.6463 5.92875C12.3593 5.57227 12.6667 5.20895 12.6667 5C12.6667 4.79105 12.3593 4.42773 11.6463 4.07125C10.7239 3.61005 9.41547 3.33333 8 3.33333C6.58451 3.33333 5.27603 3.61005 4.35365 4.07125C3.64067 4.42773 3.33333 4.79105 3.33333 5C3.33333 5.20895 3.64067 5.57227 4.35365 5.92875C5.27603 6.38995 6.58451 6.66667 8 6.66667Z" fill="#8E8E8E"/>
</svg>
