<svg width="16" height="16" viewBox="0 0 16 16" fill="none" xmlns="http://www.w3.org/2000/svg">
<path d="M6.60807 11.504C5.58407 11.504 4.76807 10.672 4.76807 9.66397C4.76807 8.63997 5.60007 7.82397 6.60807 7.82397C7.61607 7.82397 8.44807 8.63997 8.44807 9.66397C8.44807 10.672 7.63207 11.504 6.60807 11.504ZM6.60807 8.14397C5.77607 8.14397 5.08807 8.83197 5.08807 9.66397C5.08807 10.512 5.77607 11.184 6.60807 11.184C7.44007 11.184 8.12807 10.496 8.12807 9.66397C8.12807 8.81597 7.45607 8.14397 6.60807 8.14397Z" fill="#8E8E8E"/>
<path d="M5.29595 15.3209L5.07122 15.2596C4.62177 15.137 4.21318 14.9736 3.82501 14.7489L3.62072 14.6263L3.76372 14.4424C4.21318 13.85 4.27446 13.1554 3.90673 12.7876C3.539 12.4199 2.84439 12.4812 2.25193 12.9306L2.06806 13.0737L1.94549 12.8694C1.72076 12.4812 1.53689 12.0726 1.41432 11.6231L1.35303 11.3984L1.57775 11.3576C2.31322 11.2554 2.84439 10.806 2.84439 10.2952C2.84439 9.78448 2.31322 9.33503 1.57775 9.23288L1.35303 9.19202L1.41432 8.98772C1.53689 8.53827 1.70033 8.12968 1.92506 7.74152L2.04763 7.53722L2.2315 7.68023C2.82396 8.12968 3.51857 8.19097 3.8863 7.82324C4.25403 7.4555 4.19275 6.76089 3.74329 6.16844L3.60029 5.98457L3.80458 5.86199C4.19275 5.63726 4.60134 5.4534 5.05079 5.33082L5.27552 5.26953L5.31638 5.49426C5.41852 6.22972 5.86798 6.76089 6.37872 6.76089C6.88946 6.76089 7.33891 6.22972 7.44106 5.49426L7.48192 5.26953L7.70664 5.33082C8.15609 5.4534 8.56469 5.61683 8.95285 5.84156L9.15715 5.96414L8.99371 6.12758C8.54426 6.72004 8.48297 7.41464 8.8507 7.78238C9.21844 8.15011 9.91304 8.08882 10.5055 7.63937L10.6894 7.49636L10.8119 7.70066C11.0367 8.08882 11.2205 8.49741 11.3431 8.94686L11.4044 9.17159L11.1797 9.21245C10.4442 9.3146 9.91304 9.76405 9.91304 10.2748C9.91304 10.7855 10.4442 11.235 11.1797 11.3371L11.4044 11.378L11.3431 11.6027C11.2205 12.0522 11.0571 12.4608 10.8324 12.8489L10.7098 13.0532L10.5259 12.9102C9.93347 12.4608 9.23886 12.3995 8.87113 12.7672C8.5034 13.1349 8.56469 13.8295 9.01414 14.422L9.15715 14.6059L8.95285 14.7284C8.56469 14.9532 8.15609 15.137 7.70664 15.2596L7.50235 15.3209L7.46149 15.0962C7.35934 14.3607 6.90989 13.8295 6.39915 13.8295C5.88841 13.8295 5.43895 14.3607 5.33681 15.0962L5.29595 15.3209ZM4.21318 14.5037C4.45833 14.6263 4.70349 14.7285 4.94864 14.8102C5.13251 13.993 5.72497 13.421 6.37872 13.421C7.03246 13.421 7.60449 13.993 7.80879 14.8102C8.07438 14.7285 8.31953 14.6263 8.54426 14.5037C8.09481 13.7887 8.09481 12.9715 8.56469 12.5016C9.03457 12.0317 9.83132 12.0317 10.5464 12.4608C10.6689 12.2156 10.7711 11.9705 10.8528 11.7049C10.0356 11.521 9.46359 10.9285 9.46359 10.2748C9.46359 9.62104 10.0356 9.04901 10.8528 8.84472C10.7711 8.57913 10.6689 8.33398 10.5464 8.10925C9.83132 8.5587 9.01414 8.5587 8.54426 8.08882C8.07438 7.61894 8.07438 6.80175 8.52383 6.08672C8.27867 5.96414 8.03352 5.86199 7.76793 5.78027C7.58406 6.59746 6.9916 7.16949 6.33786 7.16949C5.68411 7.16949 5.11208 6.59746 4.90778 5.78027C4.6422 5.86199 4.39704 5.96414 4.17232 6.08672C4.62177 6.80175 4.62177 7.61894 4.15189 8.08882C3.682 8.5587 2.88525 8.5587 2.17021 8.12968C2.04763 8.37484 1.94549 8.61999 1.86377 8.88558C2.68095 9.06944 3.25298 9.6619 3.25298 10.3156C3.25298 10.9694 2.68095 11.5414 1.86377 11.7457C1.94549 12.0113 2.04763 12.2565 2.17021 12.4812C2.88525 12.0317 3.70243 12.0317 4.17232 12.5016C4.66263 12.9715 4.66263 13.7887 4.21318 14.5037Z" fill="#8E8E8E"/>
<path d="M11.1039 5.53591C10.5919 5.53591 10.1919 5.11991 10.1919 4.62391C10.1919 4.11191 10.6079 3.71191 11.1039 3.71191C11.5999 3.71191 12.0159 4.12791 12.0159 4.62391C12.0159 5.13591 11.5999 5.53591 11.1039 5.53591ZM11.1039 4.03191C10.7679 4.03191 10.5119 4.30391 10.5119 4.62391C10.5119 4.94391 10.7839 5.21591 11.1039 5.21591C11.4239 5.21591 11.6959 4.94391 11.6959 4.62391C11.6959 4.30391 11.4239 4.03191 11.1039 4.03191Z" fill="#8E8E8E"/>
<path d="M11.6088 6.69987L11.384 6.63858C11.1389 6.57729 10.8937 6.47514 10.6894 6.35256L10.4851 6.22999L10.6281 6.04612C10.8324 5.7601 10.8733 5.43323 10.7099 5.26979C10.5464 5.10636 10.2195 5.14722 9.93353 5.35151L9.74967 5.51495L9.62709 5.31065C9.50451 5.08593 9.40236 4.8612 9.34107 4.61604L9.27979 4.39132L9.50451 4.35046C9.85181 4.3096 10.1174 4.08487 10.1174 3.86015C10.1174 3.63542 9.85181 3.43113 9.50451 3.36984L9.27979 3.32898L9.34107 3.10425C9.40236 2.8591 9.50451 2.61394 9.62709 2.40964L9.74967 2.20535L9.93353 2.34836C10.2195 2.55265 10.5464 2.59351 10.7099 2.43007C10.8733 2.26664 10.8324 1.93976 10.6281 1.65375L10.4851 1.46988L10.6894 1.3473C10.9142 1.22473 11.1389 1.12258 11.384 1.06129L11.6088 1L11.6496 1.22473C11.6905 1.57203 11.9152 1.83761 12.1399 1.83761C12.3647 1.83761 12.569 1.57203 12.6302 1.22473L12.6711 1L12.8958 1.06129C13.141 1.12258 13.3861 1.22473 13.5904 1.3473L13.7947 1.46988L13.6517 1.65375C13.4474 1.93976 13.4066 2.26664 13.57 2.43007C13.7334 2.59351 14.0603 2.55265 14.3463 2.34836L14.5302 2.20535L14.6528 2.40964C14.7754 2.63437 14.8775 2.8591 14.9388 3.10425L15.0001 3.32898L14.7754 3.36984C14.4281 3.4107 14.1625 3.63542 14.1625 3.86015C14.1625 4.08487 14.4281 4.28917 14.7754 4.35046L15.0001 4.39132L14.8979 4.59562C14.8366 4.84077 14.7345 5.08593 14.6119 5.29022L14.4893 5.49452L14.3055 5.35151C14.0195 5.14722 13.6926 5.10636 13.5291 5.26979C13.3657 5.43323 13.4066 5.7601 13.6109 6.04612L13.7539 6.22999L13.5496 6.35256C13.3249 6.47514 13.1001 6.57729 12.855 6.63858L12.6507 6.69987L12.6098 6.47514C12.569 6.12784 12.3442 5.86225 12.1195 5.86225C11.8948 5.86225 11.6905 6.12784 11.6292 6.47514L11.6088 6.69987ZM11.0776 6.10741C11.1389 6.14827 11.2206 6.1687 11.2819 6.18913C11.4249 5.7601 11.7518 5.45366 12.1195 5.45366C12.4872 5.45366 12.8141 5.73967 12.9571 6.1687C13.0184 6.14827 13.1001 6.10741 13.1614 6.08698C12.9571 5.67839 12.9775 5.24936 13.2431 4.98378C13.5087 4.71819 13.9377 4.69776 14.3463 4.90206C14.3872 4.84077 14.4076 4.75905 14.4281 4.69776C13.999 4.55476 13.6926 4.22788 13.6926 3.86015C13.6926 3.49241 13.9786 3.16554 14.4076 3.02253C14.3872 2.96124 14.3463 2.87953 14.3259 2.81824C13.9173 3.02253 13.4883 3.0021 13.2227 2.73652C12.9571 2.47093 12.9367 2.04191 13.141 1.63332C13.0797 1.59246 12.998 1.57203 12.9367 1.5516C12.7937 1.98062 12.4668 2.28707 12.0991 2.28707C11.7313 2.28707 11.4045 2.00105 11.2615 1.57203C11.2002 1.59246 11.1185 1.63332 11.0572 1.65375C11.2615 2.06234 11.241 2.49136 10.9754 2.75695C10.7099 3.02253 10.2808 3.04296 9.87224 2.83867C9.83139 2.89996 9.81096 2.98167 9.79053 3.04296C10.2195 3.18597 10.526 3.51284 10.526 3.88058C10.526 4.24831 10.24 4.57519 9.81096 4.71819C9.83138 4.77948 9.87224 4.8612 9.89267 4.92249C10.3013 4.71819 10.7303 4.73862 10.9959 5.00421C11.2615 5.24936 11.2819 5.69882 11.0776 6.10741Z" fill="#8E8E8E"/>
</svg>
