<svg width="16" height="16" viewBox="0 0 16 16" fill="none" xmlns="http://www.w3.org/2000/svg">
<path d="M5.63778 8.28223C4.3532 8.28223 3.30811 9.32735 3.30811 10.6119C3.30811 11.8965 4.3532 12.9415 5.63778 12.9415C6.92233 12.9415 7.96746 11.8965 7.96746 10.6119C7.96746 10.1451 7.8298 9.69461 7.56946 9.30918C7.50175 9.20902 7.36568 9.18265 7.26545 9.25033C7.16526 9.31807 7.13888 9.45414 7.2066 9.55434C7.41791 9.8671 7.52958 10.2327 7.52958 10.6119C7.52958 11.655 6.68093 12.5037 5.63781 12.5037C4.59466 12.5037 3.74605 11.655 3.74605 10.6119C3.74605 9.56878 4.59466 8.72014 5.63781 8.72014C5.75873 8.72014 5.85675 8.62211 5.85675 8.50123C5.85672 8.38025 5.75869 8.28223 5.63778 8.28223Z" fill="#C5C5C5"/>
<path d="M9.68525 12.6895L9.11269 12.1168C9.06123 12.0654 9.0472 11.9859 9.07548 11.9179C9.07607 11.9166 9.07875 11.9103 9.07923 11.9091C9.10877 11.8378 9.17477 11.7917 9.2474 11.7917H10.0572C10.178 11.7917 10.2761 11.6936 10.2761 11.5727V9.40129C10.2761 9.28038 10.178 9.18235 10.0572 9.18235H9.2474C9.17477 9.18235 9.10877 9.13626 9.07697 9.0596C9.0472 8.98807 9.06126 8.9086 9.11269 8.85708L9.68525 8.28451C9.77077 8.19903 9.77077 8.0604 9.68525 7.97488L8.14985 6.43949C8.06433 6.354 7.92571 6.354 7.84019 6.43949C7.75467 6.52501 7.75467 6.66363 7.84019 6.74915L9.22083 8.12973L8.80308 8.54744C8.62574 8.72475 8.57455 8.99179 8.67467 9.23248C8.77219 9.468 8.99698 9.62023 9.2474 9.62023H9.83819V11.3538H9.2474C8.99698 11.3538 8.77219 11.506 8.67626 11.7377C8.67577 11.7389 8.67312 11.7451 8.67267 11.7463C8.57448 11.9822 8.62568 12.2493 8.80308 12.4265L9.22083 12.8443L7.99504 14.0701L7.57729 13.6523C7.39991 13.4749 7.13285 13.4238 6.89229 13.5239C6.65673 13.6214 6.5045 13.8463 6.5045 14.0966V14.6874H4.77101V14.0966C4.77101 13.8462 4.61882 13.6214 4.37851 13.5219C4.1426 13.4238 3.8756 13.475 3.69823 13.6523L3.28048 14.07L2.05472 12.8443L2.47246 12.4265C2.64977 12.2491 2.70097 11.9821 2.60087 11.7415C2.5033 11.506 2.27847 11.3538 2.02815 11.3538H1.43739V9.62023H2.02818C2.27854 9.62023 2.50336 9.468 2.60288 9.22773C2.70097 8.99182 2.64981 8.72479 2.4725 8.54741L2.05475 8.1297L3.28051 6.90394L3.69826 7.32165C3.87557 7.49902 4.14257 7.55022 4.38326 7.45009C4.61882 7.35251 4.77101 7.12769 4.77101 6.87737V6.28658H6.5045V6.87737C6.5045 7.12776 6.65673 7.35258 6.89229 7.45009C6.97121 7.4828 7.05014 7.51919 7.12677 7.55824C7.2344 7.61308 7.3663 7.57029 7.42125 7.46253C7.47613 7.35481 7.4333 7.22297 7.32554 7.16806C7.23873 7.12381 7.14933 7.0826 7.0598 7.0455C6.98847 7.01596 6.94238 6.94996 6.94238 6.87734V6.06757C6.94238 5.94663 6.84435 5.84863 6.72344 5.84863H4.55207C4.43116 5.84863 4.33313 5.94663 4.33313 6.06757V6.87734C4.33313 6.94996 4.28704 7.01596 4.21035 7.04773C4.13889 7.07753 4.05938 7.0635 4.00792 7.01202L3.43536 6.43946C3.34984 6.35397 3.21118 6.35397 3.1257 6.43946L1.59027 7.97485C1.50475 8.06037 1.50475 8.19903 1.59027 8.28455L2.16283 8.85704C2.21432 8.90856 2.22831 8.98804 2.19929 9.05785C2.199 9.05853 2.19664 9.06422 2.19631 9.0649C2.16677 9.13623 2.10077 9.18232 2.02818 9.18232H1.21845C1.09754 9.18232 0.999512 9.28035 0.999512 9.40126V11.5727C0.999512 11.6936 1.09754 11.7916 1.21845 11.7916H2.02821C2.10081 11.7916 2.16681 11.8377 2.19861 11.9144C2.22834 11.9859 2.21432 12.0654 2.16286 12.1168L1.5903 12.6894C1.50478 12.7749 1.50478 12.9136 1.5903 12.9991L3.12573 14.5345C3.21125 14.62 3.34987 14.62 3.43539 14.5345L4.00795 13.9619C4.05941 13.9104 4.13889 13.8965 4.2087 13.9255C4.20938 13.9258 4.21507 13.9281 4.21574 13.9285C4.28708 13.958 4.33317 14.024 4.33317 14.0966V14.9063C4.33317 15.0273 4.43119 15.1253 4.55211 15.1253H6.72351C6.84442 15.1253 6.94245 15.0273 6.94245 14.9063V14.0966C6.94245 14.024 6.98854 13.958 7.05741 13.9294C7.05835 13.929 7.06436 13.9265 7.06527 13.9262C7.13676 13.8964 7.21627 13.9105 7.26769 13.9619L7.84025 14.5344C7.88133 14.5755 7.93702 14.5986 7.9951 14.5986C8.05315 14.5986 8.10884 14.5755 8.14992 14.5345L9.68531 12.9991C9.77077 12.9135 9.77077 12.7749 9.68525 12.6895Z" fill="#C5C5C5"/>
<path d="M11.9404 9.82679C11.9404 10.6041 12.5728 11.2365 13.3502 11.2365C14.1276 11.2365 14.76 10.6041 14.76 9.82679C14.76 9.04944 14.1276 8.41699 13.3502 8.41699C12.5728 8.41699 11.9404 9.04944 11.9404 9.82679ZM14.322 9.82679C14.322 10.3627 13.8861 10.7986 13.3502 10.7986C12.8143 10.7986 12.3783 10.3627 12.3783 9.82679C12.3783 9.29085 12.8143 8.85491 13.3502 8.85491C13.8861 8.85491 14.322 9.29085 14.322 9.82679Z" fill="#C5C5C5"/>
<path d="M14.781 14.0694C14.9018 14.0694 14.9999 13.9714 14.9999 13.8504V13.3021C14.9999 12.3924 14.2599 11.6523 13.3502 11.6523C12.4405 11.6523 11.7004 12.3924 11.7004 13.3021V14.7119H9.03486C8.91398 14.7119 8.81592 14.8099 8.81592 14.9308C8.81592 15.0517 8.91398 15.1497 9.03486 15.1497H11.9087C11.9123 15.1499 11.9157 15.1508 11.9194 15.1508H14.7809C14.9018 15.1508 14.9999 15.0528 14.9999 14.9319C14.9999 14.8109 14.9018 14.7129 14.7809 14.7129H12.1383V13.3021C12.1383 12.6339 12.682 12.0902 13.3502 12.0902C14.0184 12.0902 14.562 12.6339 14.562 13.3021V13.8504C14.562 13.9714 14.66 14.0694 14.781 14.0694Z" fill="#C5C5C5"/>
<path d="M2.75117 5.71145C2.87208 5.71145 2.97011 5.61343 2.97011 5.49251V1.81093H4.42241C4.54332 1.81093 4.64135 1.71293 4.64135 1.59199C4.64135 1.47108 4.54332 1.37305 4.42241 1.37305H2.75117C2.63026 1.37305 2.53223 1.47108 2.53223 1.59199V5.49251C2.53223 5.61346 2.63026 5.71145 2.75117 5.71145Z" fill="#C5C5C5"/>
<path d="M11.86 1.81093H13.3446V7.10949C13.3446 7.23043 13.4426 7.32843 13.5635 7.32843C13.6844 7.32843 13.7825 7.2304 13.7825 7.10949V1.59199C13.7825 1.47108 13.6844 1.37305 13.5635 1.37305H11.86C11.7391 1.37305 11.6411 1.47108 11.6411 1.59199C11.6411 1.71293 11.7391 1.81093 11.86 1.81093Z" fill="#C5C5C5"/>
<path d="M5.71699 2.75365H10.5976C10.7185 2.75365 10.8165 2.65563 10.8165 2.53471V1.06855C10.8165 0.947638 10.7185 0.849609 10.5976 0.849609H5.71699C5.59608 0.849609 5.49805 0.947638 5.49805 1.06855V2.53471C5.49805 2.65563 5.59608 2.75365 5.71699 2.75365ZM5.93593 1.28749H10.3786V2.31574H5.93593V1.28749Z" fill="#C5C5C5"/>
<path d="M5.63789 9.19507C5.51694 9.19507 5.41895 9.2931 5.41895 9.41401V10.6115C5.41895 10.7324 5.51694 10.8304 5.63789 10.8304H6.43666C6.55757 10.8304 6.6556 10.7324 6.6556 10.6115C6.6556 10.4906 6.55757 10.3926 6.43666 10.3926H5.85686V9.41404C5.85683 9.2931 5.7588 9.19507 5.63789 9.19507Z" fill="#C5C5C5"/>
<path d="M5.17695 4.47694H10.1201C10.241 4.47694 10.339 4.37895 10.339 4.258C10.339 4.13709 10.241 4.03906 10.1201 4.03906H5.17695C5.056 4.03906 4.95801 4.13709 4.95801 4.258C4.95801 4.37891 5.056 4.47694 5.17695 4.47694Z" fill="#C5C5C5"/>
<path d="M10.1199 5.80566H9.11591C8.99503 5.80566 8.89697 5.90369 8.89697 6.0246C8.89697 6.14552 8.99503 6.24354 9.11591 6.24354H10.1199C10.2408 6.24354 10.3388 6.14552 10.3388 6.0246C10.3388 5.90369 10.2408 5.80566 10.1199 5.80566Z" fill="#C5C5C5"/>
<path d="M11.4366 4.72279C11.4793 4.76552 11.5354 4.78688 11.5914 4.78688C11.6474 4.78688 11.7035 4.76549 11.7462 4.72276L12.3664 4.10249C12.4519 4.017 12.4519 3.87838 12.3664 3.79286C12.2809 3.7074 12.1422 3.70737 12.0568 3.79289L11.5914 4.25834L11.4069 4.07395C11.3214 3.98846 11.1827 3.98843 11.0973 4.07399C11.0118 4.15947 11.0118 4.29813 11.0973 4.38362L11.4366 4.72279Z" fill="#C5C5C5"/>
<path d="M11.4366 6.49012C11.4793 6.53285 11.5354 6.55425 11.5914 6.55425C11.6474 6.55425 11.7035 6.53285 11.7462 6.49009L12.3664 5.86983C12.4519 5.78434 12.4519 5.64571 12.3664 5.56019C12.2809 5.47474 12.1422 5.47471 12.0568 5.56023L11.5914 6.02568L11.4069 5.84129C11.3214 5.7558 11.1827 5.75577 11.0973 5.84129C11.0118 5.92678 11.0118 6.06543 11.0973 6.15092L11.4366 6.49012Z" fill="#C5C5C5"/>
</svg>
