<svg width="123" height="102" viewBox="0 0 123 102" fill="none" xmlns="http://www.w3.org/2000/svg">
<path d="M13.56 48.8C12.86 38.58 13.32 30.29 16.81 24.46C20.3 18.63 26.94 15.21 38.39 15.21H40.39V10.21C40.39 8.21 40.75 7 41.64 6.51C42.53 6.02 43.78 6.42 45.3 7.87L57.26 19.24C57.6835 19.5639 58.026 19.9819 58.2603 20.4609C58.4945 20.9399 58.6143 21.4668 58.61 22C58.4522 22.9966 57.9235 23.8967 57.13 24.52L45.37 35.78C43.94 37.22 42.74 37.65 41.76 37.16C40.78 36.67 40.41 35.47 40.43 33.57V27.49C28.82 27.05 26.32 31.84 25.92 38.21C25.8 40.21 25.86 42.44 25.92 44.67C25.92 46.11 26 47.56 26 48.79C26.004 48.9466 25.9767 49.1025 25.9199 49.2485C25.863 49.3945 25.7776 49.5277 25.6687 49.6403C25.5598 49.7529 25.4295 49.8427 25.2855 49.9045C25.1415 49.9663 24.9867 49.9987 24.83 50H14.73C14.4197 50 14.1221 49.8767 13.9027 49.6573C13.6833 49.4379 13.56 49.1403 13.56 48.83V48.8ZM76.42 0H117.12C118.647 0.00264388 120.11 0.610348 121.19 1.68999C122.27 2.76962 122.877 4.23317 122.88 5.76V37.4C122.88 38.1563 122.731 38.9052 122.441 39.6036C122.151 40.3021 121.726 40.9364 121.19 41.47C121.071 41.5881 120.944 41.6983 120.81 41.8C119.781 42.6783 118.473 43.1605 117.12 43.16H76.42C75.6641 43.16 74.9155 43.0109 74.2173 42.7214C73.519 42.4318 72.8847 42.0073 72.3506 41.4723C71.8165 40.9373 71.3932 40.3023 71.1048 39.6035C70.8164 38.9047 70.6687 38.1559 70.67 37.4V5.76C70.6691 5.00601 70.8171 4.25927 71.1054 3.56257C71.3937 2.86587 71.8166 2.23292 72.35 1.7C73.4286 0.617618 74.892 0.0063958 76.42 0ZM5.76 58.64H46.46C47.9634 58.6567 49.4 59.2637 50.46 60.33C51.5354 61.4076 52.1395 62.8676 52.14 64.39V96C52.1416 96.7556 51.9941 97.5041 51.7058 98.2025C51.4175 98.9009 50.9941 99.5356 50.46 100.07C50.3406 100.188 50.2136 100.298 50.08 100.4C49.0494 101.275 47.7421 101.757 46.39 101.76H5.76C4.23317 101.757 2.76962 101.15 1.68999 100.07C0.610348 98.9904 0.00264388 97.5268 0 96L0 64.4C0.00120974 63.6445 0.152062 62.8968 0.443846 62.1999C0.735629 61.5031 1.16256 60.8709 1.7 60.34C2.23362 59.8041 2.86788 59.3789 3.56635 59.0888C4.26482 58.7988 5.01371 58.6497 5.77 58.65L5.76 58.64ZM103.37 55.13C104.07 65.36 103.61 73.65 100.12 79.48C96.63 85.31 90 88.72 78.54 88.72H76.49V93.72C76.49 95.72 76.14 96.93 75.25 97.42C74.36 97.91 73.11 97.51 71.59 96.06L59.67 84.69C59.2547 84.3743 58.9172 83.9677 58.6832 83.5015C58.4492 83.0352 58.325 82.5216 58.32 82C58.4811 81.0018 59.0088 80.0996 59.8 79.47L71.56 68.16C72.99 66.72 74.19 66.28 75.17 66.78C76.15 67.28 76.52 68.46 76.49 70.37V76.45C88.1 76.89 90.59 72.1 90.99 65.72C91.12 63.72 91.06 61.5 90.99 59.26C90.99 57.83 90.91 56.37 90.91 55.14C90.9179 54.8332 91.046 54.5417 91.2667 54.3285C91.4874 54.1153 91.7831 53.9973 92.09 54H102.19C102.501 54 102.8 54.1229 103.021 54.3421C103.242 54.5612 103.367 54.8588 103.37 55.17V55.13Z" fill="#C7C7C7"/>
</svg>
