<svg width="16" height="16" viewBox="0 0 16 16" fill="none" xmlns="http://www.w3.org/2000/svg">
<g clip-path="url(#clip0_1184_1176)">
<path d="M7.99984 0.666992L14.3332 4.33366V11.667L7.99984 15.3337L1.6665 11.667V4.33366L7.99984 0.666992ZM7.99984 2.20766L2.99984 5.10233V10.8983L7.99984 13.793L12.9998 10.8983V5.10233L7.99984 2.20766ZM7.99984 10.667C7.29259 10.667 6.61432 10.386 6.11422 9.88594C5.61412 9.38585 5.33317 8.70757 5.33317 8.00033C5.33317 7.29308 5.61412 6.6148 6.11422 6.11471C6.61432 5.61461 7.29259 5.33366 7.99984 5.33366C8.70708 5.33366 9.38536 5.61461 9.88546 6.11471C10.3856 6.6148 10.6665 7.29308 10.6665 8.00033C10.6665 8.70757 10.3856 9.38585 9.88546 9.88594C9.38536 10.386 8.70708 10.667 7.99984 10.667ZM7.99984 9.33366C8.35346 9.33366 8.6926 9.19318 8.94265 8.94313C9.19269 8.69309 9.33317 8.35395 9.33317 8.00033C9.33317 7.6467 9.19269 7.30757 8.94265 7.05752C8.6926 6.80747 8.35346 6.66699 7.99984 6.66699C7.64622 6.66699 7.30708 6.80747 7.05703 7.05752C6.80698 7.30757 6.6665 7.6467 6.6665 8.00033C6.6665 8.35395 6.80698 8.69309 7.05703 8.94313C7.30708 9.19318 7.64622 9.33366 7.99984 9.33366Z" fill="#8E8E8E"/>
</g>
<defs>
<clipPath id="clip0_1184_1176">
<rect width="16" height="16" fill="white"/>
</clipPath>
</defs>
</svg>
