<svg width="16" height="16" viewBox="0 0 16 16" fill="none" xmlns="http://www.w3.org/2000/svg">
<g clip-path="url(#clip0_1184_1150)">
<path d="M14.0798 6.39977C14.0798 6.04649 13.7931 5.75977 13.4398 5.75977C13.0865 5.75977 12.7998 6.04649 12.7998 6.39977C12.7998 6.55209 12.7998 11.0474 12.7998 11.1998C12.7998 11.553 13.0865 11.8398 13.4398 11.8398C13.7931 11.8398 14.0798 11.553 14.0798 11.1998C14.0798 11.0474 14.0798 6.55209 14.0798 6.39977Z" stroke="#8E8E8E" stroke-width="2" stroke-miterlimit="10"/>
<path d="M8.96022 15.0398C9.3135 15.0398 9.60022 14.753 9.60022 14.3998C9.60022 14.0465 9.3135 13.7598 8.96022 13.7598C8.80789 13.7598 7.51253 13.7598 7.36021 13.7598C7.00693 13.7598 6.72021 14.0465 6.72021 14.3998C6.72021 14.753 7.00693 15.0398 7.36021 15.0398C7.51253 15.0398 8.80789 15.0398 8.96022 15.0398Z" stroke="#8E8E8E" stroke-width="2" stroke-miterlimit="10"/>
<path d="M2.56006 6.07965C2.56006 3.07517 4.99558 0.639648 8.00006 0.639648C11.0045 0.639648 13.4401 3.07517 13.4401 6.07965" stroke="#8E8E8E" stroke-width="2" stroke-miterlimit="10"/>
<path d="M14.0801 6.40039C14.9639 6.40039 15.6801 7.47463 15.6801 8.80039C15.6801 10.1255 14.9639 11.2004 14.0801 11.2004" stroke="#8E8E8E" stroke-width="2" stroke-miterlimit="10"/>
<path d="M1.91992 6.39977C1.91992 6.04649 2.20664 5.75977 2.55992 5.75977C2.9132 5.75977 3.19992 6.04649 3.19992 6.39977C3.19992 6.55209 3.19992 11.0474 3.19992 11.1998C3.19992 11.553 2.9132 11.8398 2.55992 11.8398C2.20664 11.8398 1.91992 11.553 1.91992 11.1998C1.91992 11.0474 1.91992 6.55209 1.91992 6.39977Z" stroke="#8E8E8E" stroke-width="2" stroke-miterlimit="10"/>
<path d="M1.91982 6.40039C1.0363 6.40039 0.319824 7.47463 0.319824 8.80039C0.319824 10.1255 1.0363 11.2004 1.91982 11.2004" stroke="#8E8E8E" stroke-width="2" stroke-miterlimit="10"/>
<path d="M13.4401 11.8398C13.4401 13.4398 12.4801 14.3998 10.8801 14.3998H9.6001" stroke="#8E8E8E" stroke-width="2" stroke-miterlimit="10"/>
</g>
<defs>
<clipPath id="clip0_1184_1150">
<rect width="16" height="16" fill="white"/>
</clipPath>
</defs>
</svg>
